<svg xmlns="http://www.w3.org/2000/svg" width="150" height="34"><g fill="none" fill-rule="evenodd"><path fill="#22AC38" d="M13.988 21.416c-.175.088-.35.132-.57.132-.482 0-.877-.265-1.096-.662l-.088-.177-3.464-7.595c-.044-.088-.044-.176-.044-.265 0-.353.263-.618.614-.618.131 0 .263.044.395.133l4.078 2.914c.306.177.657.309 1.052.309.22 0 .438-.044.658-.132L34.64 6.888C31.221 2.826 25.564.177 19.162.177 8.726.177.22 7.286.22 16.073c0 4.769 2.544 9.096 6.534 12.01.307.22.526.618.526 1.016 0 .132-.044.265-.088.397-.307 1.192-.833 3.135-.833 3.223-.044.133-.088.31-.088.486 0 .353.264.618.614.618a.496.496 0 0 0 .351-.132l4.122-2.429c.307-.176.658-.309 1.009-.309.175 0 .394.044.57.089 1.929.574 4.034.883 6.182.883 10.436 0 18.943-7.11 18.943-15.896 0-2.65-.79-5.167-2.148-7.374L14.119 21.327l-.131.089Z"></path><path fill="#494949" d="M83.621 11.436h14.207v1.281H83.621zM83.621 15.41h14.207v1.369H83.621z"></path><path fill="#494949" fill-rule="nonzero" d="M97.433 27.288v-7.771H83.971v7.727h13.462v.044Zm-12.102-6.49h10.743v5.166H85.33v-5.167Z"></path><path fill="#494949" d="M79.718 28.083V10.288c.79-1.766 1.535-3.62 2.105-5.52l-1.272-.75c-1.271 4.46-3.07 8.478-5.393 11.878l.745 1.325c.79-1.192 1.623-2.605 2.456-4.063v14.97h1.36v-.045ZM131.285 28.083V10.288c.79-1.766 1.535-3.62 2.105-5.52l-1.272-.75c-1.272 4.46-3.07 8.478-5.393 11.878l.745 1.325c.79-1.192 1.622-2.605 2.456-4.063v14.97h1.359v-.045ZM99.319 7.33h-8.332l.877-.53h.044v-.044a24.84 24.84 0 0 0-.658-1.413c-.263-.574-.526-1.104-.657-1.413v-.044l-1.272.75v.045c.439.838.833 1.633 1.184 2.384.044.088.088.177.088.22H82.26v1.37H99.32V7.33ZM62.66 6.27H61.39v4.504h-2.412V4.371h-1.271v6.403h-2.5V6.27h-1.271v5.785h8.726zM54.329 14.571h7.717v1.281h-7.717zM55.996 20.842v-1.148h3.902v2.825c-.044 1.016-.088 1.325-.438 1.767l.789 1.369.044-.045c.701-.574 1.841-1.545 3.464-3.002h.044l-.614-1.06-.044-.044-1.973 1.678v-4.813h-6.534v1.943c.176 2.649-.482 4.548-1.973 5.652h-.044l.702 1.236.044.044.043-.044c1.842-1.457 2.72-3.62 2.588-6.358ZM47.664 10.42l.79 1.325a25.314 25.314 0 0 0 4.91-6.976l-1.183-.707c-1.272 2.561-2.807 4.725-4.517 6.359ZM47.313 18.501l.702 1.237.044.044.044-.044c.745-.883 1.49-1.81 2.192-2.782v11.127h1.272V14.836a31.482 31.482 0 0 0 1.666-3.444v-.044l-1.228-.706v.044c-1.227 2.958-2.762 5.608-4.692 7.815Z"></path><path fill="#494949" fill-rule="nonzero" d="M72 10.068V8.787h-5.656c.482-1.501 1.052-3.223 1.228-4.68h-1.316c-.833 3.885-2.104 7.285-3.727 9.935l.79 1.413.57-1.193c.219-.397.394-.706.526-.971.394 3.444 1.096 6.226 2.06 8.257-.92 1.634-2.367 3.312-4.297 5.034h-.044l.746 1.28.044.044.044-.044c2.017-1.898 3.42-3.576 4.165-4.945.833 1.501 2.28 3.312 3.903 5.034l.044.044.745-1.325v-.044h-.044c-1.754-1.722-3.157-3.488-3.946-4.99 1.447-2.649 2.324-6.535 2.675-11.568H72Zm-4.691 9.935c-.833-2.164-1.447-5.122-1.842-8.787.132-.398.307-.795.482-1.148h3.42c-.306 4.15-.964 7.506-2.06 9.935ZM125.102 8.699v-1.37h-10.83V3.843h-1.404V7.33h-10.743v1.369h10.743v4.548H105.896v1.236s1.052 2.429 3.245 5.078c.877 1.06 1.885 2.164 3.201 3.268-2.456 1.5-5.481 2.958-9.735 3.797l.79 1.413s5.042-1.06 10.041-4.327c.658.441 3.771 2.914 9.56 4.327h.043l.57-1.06s-1.49-.397-3.77-1.28c-1.58-.618-3.553-1.546-5.438-2.826a20.167 20.167 0 0 0 6.797-8.92l-1.14-.662h-5.833V8.699h10.875Zm-5.481 5.74s-1.403 4.018-6.183 7.462c-2.28-1.766-4.648-4.327-6.139-7.462h12.322Z"></path><path fill="#494949" d="M142.554 26.317h-.79v1.369h1.185c1.36 0 2.06-.31 2.675-.883.57-.574.833-1.413.789-2.561v-12.85h3.683v-1.369h-3.683V4.106h-1.36v5.917H133.74v1.37h11.314v12.849c-.044 1.413-.921 2.075-2.5 2.075Z"></path><path fill="#494949" d="m139.485 21.725 1.359-.795c-.745-1.501-1.71-3.488-2.894-5.917l-1.228.75c.79 1.634 1.71 3.621 2.763 5.962Z"></path></g></svg>